:SAMPLES-PER-SECOND 30
:FULLY-SPECIFIED
:DEGREES
838
root  34.3814 38.9965 -9.68406 171.499 -73.4954 -175.903
RightUpLeg  1.3248 -11.0408 -3.85632
RightLeg  13.4726 -3.29621 1.58573
RightFoot  -9.42962 -0.109123 2.70502
RightToes  5.23868e-010 0 -3.6325e-017
Spine  7.21791 -0.289284 16.2135
Spine1  7.18084 2.71596 -6.80738
HEad  -17.8672 -7.55028 -5.43475
LeftShoulder1  -0.0853411 3.74225 -29.6947
LeftArm  2.20415 16.6113 -43.6116
LeftForeArm  19.7906 -22.2121 -4.01101
LeftHand  0.0326976 2.09639 -1.60194
RightShoulder  -0.503318 -5.02412 26.278
RightArm  13.75 1.89519 44.8728
RightForeArm  0.932968 12.8533 6.32117
RightHand  -0.503532 2.74319 -7.41
LeftUpLeg  -15.3894 2.68573 1.55716
LeftLeg  45.4727 -1.32743 -1.04688
LeftFoot  -1.12905 0.0663742 -0.660746
LeftToes  -4.9204e-010 1.02043e-011 -1.81609e-011
839
root  33.8063 39.0442 -10.1684 172.966 -74.8792 -177.217
RightUpLeg  2.84346 -11.0976 -4.05828
RightLeg  12.7188 -4.49 1.47293
RightFoot  -10.2436 -0.0954369 2.71538
RightToes  5.23868e-010 0 -3.6325e-017
Spine  7.00573 -0.061762 15.5864
Spine1  7.18857 2.73526 -6.77619
HEad  -18.5203 -8.06484 -5.72996
LeftShoulder1  -0.130355 3.86416 -30.0738
LeftArm  2.67647 16.2836 -43.3339
LeftForeArm  19.9694 -22.9655 -3.96476
LeftHand  0.0352155 2.50274 -2.00065
RightShoulder  -0.452904 -4.89403 25.7031
RightArm  14.0159 1.92818 44.4888
RightForeArm  -1.43428 14.1971 6.04499
RightHand  -0.554595 2.52171 -8.34449
LeftUpLeg  -16.3783 4.86295 0.305179
LeftLeg  38.7976 -1.32077 -0.779313
LeftFoot  -1.60509 0.0306108 -0.26688
LeftToes  -4.9204e-010 1.02043e-011 -1.81609e-011
840
root  33.2446 39.0977 -10.6331 173.779 -75.8624 -177.727
RightUpLeg  4.33516 -10.6291 -3.7077
RightLeg  11.4471 -5.92486 1.25143
RightFoot  -10.7054 -0.0882051 2.79636
RightToes  5.23868e-010 0 -3.6325e-017
Spine  6.96995 0.215532 15.0552
Spine1  7.09539 2.84527 -6.91538
HEad  -19.1849 -8.27961 -5.93288
LeftShoulder1  -0.0689395 3.69344 -30.1546
LeftArm  2.55824 16.4294 -43.1394
LeftForeArm  19.4745 -23.4441 -4.01368
LeftHand  0.013638 3.31061 -1.87847
RightShoulder  -0.454514 -4.89585 25.7729
RightArm  14.7901 2.59603 43.7297
RightForeArm  -1.61672 14.9211 5.95456
RightHand  -0.596021 3.47121 -8.04115
LeftUpLeg  -16.6865 7.684 -0.734164
LeftLeg  30.3031 -1.37284 -0.475855
LeftFoot  -2.03071 0.133815 -1.49541
LeftToes  -4.9204e-010 1.02043e-011 -1.81609e-011
841
root  32.6315 39.1618 -11.0249 174.905 -76.7815 -178.678
RightUpLeg  6.37725 -10.3745 -3.68952
RightLeg  9.37909 -7.15906 1.35501
RightFoot  -10.8984 -0.0849508 2.87453
RightToes  5.23868e-010 0 -3.6325e-017
Spine  6.78858 0.320868 14.3091
Spine1  7.31036 2.82482 -7.16681
HEad  -19.7841 -7.77738 -5.89759
LeftShoulder1  -0.0050043 3.51804 -29.7487
LeftArm  1.86523 16.9676 -43.5008
LeftForeArm  19.6447 -23.4253 -4.00834
LeftHand  0.0143398 2.5263 -1.16288
RightShoulder  -0.457411 -4.90041 25.8767
RightArm  16.0743 3.50151 43.3727
RightForeArm  -1.46529 14.9527 6.16493
RightHand  -0.636112 3.52771 -8.54163
LeftUpLeg  -16.1494 10.5134 -2.11297
LeftLeg  20.4204 -1.46364 -0.407194
LeftFoot  -1.46467 0.0714671 -0.709898
LeftToes  -4.9204e-010 1.02043e-011 -1.81609e-011
842
root  31.991 39.2134 -11.3635 176.143 -77.2957 -179.559
RightUpLeg  8.06367 -10.0821 -3.69028
RightLeg  7.62751 -7.79411 1.5539
RightFoot  -11.0949 -0.0822227 3.18975
RightToes  5.23868e-010 0 -3.6325e-017
Spine  6.43708 0.548708 13.7106
Spine1  7.63015 2.98916 -7.43623
HEad  -20.2413 -8.01176 -5.84261
LeftShoulder1  0.00671285 3.48471 -29.9137
LeftArm  2.26895 17.0809 -43.0841
LeftForeArm  18.4739 -22.8731 -4.0324
LeftHand  -0.00438541 2.60586 -0.412471
RightShoulder  -0.447348 -4.87784 25.6707
RightArm  16.4001 4.22183 43.4488
RightForeArm  -1.15531 14.3289 6.44368
RightHand  -0.638852 2.66361 -9.3917
LeftUpLeg  -15.0038 9.58453 -2.4018
LeftLeg  9.69368 2.29261 -0.997285
LeftFoot  -0.601739 0.153799 -1.60569
LeftToes  -4.9204e-010 1.02043e-011 -1.81609e-011
843
root  31.2852 39.2067 -11.6872 176.448 -77.7112 -179.492
RightUpLeg  9.76878 -9.79634 -3.46456
RightLeg  5.95138 -8.49384 1.75776
RightFoot  -11.3301 -0.0772027 3.25308
RightToes  5.23868e-010 0 -3.6325e-017
Spine  6.52519 0.655817 12.7845
Spine1  7.20868 2.92165 -7.12675
HEad  -20 -7.24518 -5.83378
LeftShoulder1  -0.0709597 3.69909 -30.2528
LeftArm  2.97676 17.5997 -42.3316
LeftForeArm  17.7436 -22.3539 -4.09695
LeftHand  0.000418501 2.77901 -0.732405
RightShoulder  -0.437838 -4.85051 25.6131
RightArm  16.4381 4.57116 43.4088
RightForeArm  -0.170772 13.4988 6.7245
RightHand  -0.544779 2.63275 -8.09383
LeftUpLeg  -13.5307 3.274 -1.05118
LeftLeg  -0.491324 10.976 -2.55632
LeftFoot  0.11849 0.184691 -1.8418
LeftToes  -4.9204e-010 1.02043e-011 -1.81609e-011
844
root  30.5259 39.1167 -11.9729 175.576 -78.3017 -178.555
RightUpLeg  11.5859 -9.63346 -3.24688
RightLeg  5.03575 -9.17512 1.96193
RightFoot  -12.0808 -0.0585585 3.61368
RightToes  5.23868e-010 0 -3.6325e-017
Spine  5.95107 0.619925 12.0248
Spine1  8.18966 2.77671 -6.79164
HEad  -20.2601 -6.73494 -5.69274
LeftShoulder1  -0.0585762 3.66562 -30.0946
LeftArm  2.18055 17.5911 -42.3758
LeftForeArm  18.4367 -20.9747 -4.31306
LeftHand  -0.00677656 3.66583 -1.02406
RightShoulder  -0.43088 -4.82517 25.699
RightArm  15.6025 5.15182 43.7912
RightForeArm  0.272302 12.4124 6.94135
RightHand  -0.569336 2.73202 -8.34696
LeftUpLeg  -13.0873 2.31573 -1.59698
LeftLeg  -6.19657 13.6669 -2.13023
LeftFoot  0.201805 0.276533 -2.75445
LeftToes  -4.9204e-010 1.02043e-011 -1.81609e-011
845
root  29.6674 38.9258 -12.2328 173.495 -78.7517 -177.014
RightUpLeg  13.6086 -9.73511 -3.20094
RightLeg  5.51594 -9.26021 1.94104
RightFoot  -13.531 -0.0087341 4.28662
RightToes  5.23868e-010 0 -3.6325e-017
Spine  6.01997 0.669388 11.4901
Spine1  8.76841 2.78231 -6.49947
HEad  -20.6053 -7.10493 -4.8964
LeftShoulder1  -0.0143909 3.54328 -29.8647
LeftArm  1.00254 17.016 -42.2339
LeftForeArm  20.3695 -18.5518 -4.98863
LeftHand  -0.0138989 4.27595 -1.17926
RightShoulder  -0.464571 -4.91628 26.016
RightArm  13.8845 5.05405 44.3722
RightForeArm  1.22619 11.1776 6.92694
RightHand  -0.575896 2.77149 -8.40067
LeftUpLeg  -13.0666 2.29602 -1.6329
LeftLeg  -6.12737 15.4661 -2.25056
LeftFoot  -0.440055 0.286951 -2.94283
LeftToes  -4.9204e-010 1.02043e-011 -1.81609e-011
846
root  28.7328 38.7178 -12.4788 172.301 -79.6085 -176.379
RightUpLeg  15.7248 -9.99872 -3.50193
RightLeg  6.21474 -9.45032 1.9518
RightFoot  -15.042 0.0746289 5.48383
RightToes  5.23868e-010 0 -3.6325e-017
Spine  6.19241 0.596932 10.7446
Spine1  8.859 2.7203 -6.47975
HEad  -19.582 -6.38237 -4.36608
LeftShoulder1  0.038107 3.39691 -29.3846
LeftArm  -0.290329 16.719 -41.8337
LeftForeArm  22.5085 -16.46 -5.74229
LeftHand  -0.0149085 4.32188 -1.23988
RightShoulder  -0.512923 -5.04094 26.5597
RightArm  12.7763 4.17391 44.8113
RightForeArm  1.92088 10.4655 6.80106
RightHand  -0.546872 2.55605 -8.19561
LeftUpLeg  -13.5029 2.44686 -2.04045
LeftLeg  -2.50758 15.1013 -1.81551
LeftFoot  1.2945 0.154649 -1.51294
LeftToes  -4.9204e-010 1.02043e-011 -1.81609e-011
847
root  27.6848 38.5957 -12.7099 174.408 -79.7065 -179.392
RightUpLeg  18.4816 -10.3697 -4.74396
RightLeg  6.30307 -8.5805 1.78593
RightFoot  -15.8276 0.16722 6.99404
RightToes  5.23868e-010 0 -3.6325e-017
Spine  6.19008 0.825172 9.44908
Spine1  9.40695 3.10668 -6.89912
HEad  -18.5315 -6.94503 -3.67508
LeftShoulder1  -0.0284565 3.58184 -29.9132
LeftArm  -0.823598 16.7104 -40.3012
LeftForeArm  24.1029 -15.4155 -6.1016
LeftHand  -0.00920896 3.9351 -1.81707
RightShoulder  -0.511454 -5.02384 26.8357
RightArm  11.8012 2.82158 45.5306
RightForeArm  2.67214 9.45787 6.70643
RightHand  -0.572781 3.09385 -8.05285
LeftUpLeg  -13.5276 2.33912 -3.08652
LeftLeg  1.34622 13.4472 -0.85098
LeftFoot  5.21687 -0.62167 3.82348
LeftToes  -4.9204e-010 1.02043e-011 -1.81609e-011
848
root  26.553 38.4977 -12.8714 178.542 -79.395 175.917
RightUpLeg  20.1125 -11.6675 -6.83633
RightLeg  8.17398 -6.14161 1.17673
RightFoot  -16.4349 0.299146 9.21431
RightToes  5.23868e-010 0 -3.6325e-017
Spine  5.44034 1.08617 8.3407
Spine1  10.07 3.5525 -7.90742
HEad  -17.6267 -6.85028 -2.69121
LeftShoulder1  -0.191596 4.02928 -30.3712
LeftArm  -1.76444 17.2972 -38.9063
LeftForeArm  24.2115 -15.004 -6.10161
LeftHand  -0.0253457 5.02953 -1.80953
RightShoulder  -0.540797 -5.08688 27.3425
RightArm  11.4681 1.83438 46.5383
RightForeArm  4.22004 8.03427 6.77154
RightHand  -0.491136 2.2618 -7.65523
LeftUpLeg  -13.2326 2.23099 -4.20394
LeftLeg  4.07744 13.1492 -0.324152
LeftFoot  9.65579 -1.72724 9.13349
LeftToes  -4.9204e-010 1.02043e-011 -1.81609e-011
